<?xml version="1.0" standalone="no"?>
<!DOCTYPE svg PUBLIC "-//W3C//DTD SVG 20010904//EN"
 "http://www.w3.org/TR/2001/REC-SVG-20010904/DTD/svg10.dtd">
<svg version="1.0" xmlns="http://www.w3.org/2000/svg"
 width="1024.000000pt" height="1024.000000pt" viewBox="0 0 1024.000000 1024.000000"
 preserveAspectRatio="xMidYMid meet">

<g transform="translate(0.000000,1024.000000) scale(0.100000,-0.100000)"
fill="#000000" stroke="none">
<path d="M4980 8344 c-601 -39 -1126 -214 -1615 -539 -160 -106 -254 -179
-375 -291 -361 -334 -621 -699 -805 -1129 -98 -230 -185 -533 -220 -765 -42
-279 -42 -668 0 -950 139 -931 694 -1763 1500 -2247 887 -533 1961 -616 2910
-226 467 192 892 508 1237 918 107 128 218 280 218 300 0 6 -10 17 -22 25 -87
55 -599 370 -602 370 -2 0 -27 -34 -56 -76 -337 -488 -829 -838 -1368 -975
-437 -111 -926 -100 -1333 31 -145 46 -162 59 -229 175 -71 125 -135 309 -163
468 -11 67 -12 69 -77 122 -128 105 -256 272 -351 457 -106 209 -166 431 -184
681 l-7 97 140 0 140 0 7 -87 c17 -218 52 -376 124 -553 204 -501 663 -881
1199 -990 210 -42 360 -49 562 -25 458 54 854 259 1194 616 53 55 96 105 96
109 0 11 -49 48 -175 137 -272 189 -352 247 -378 271 l-27 26 -17 -24 c-9 -14
-44 -54 -77 -89 -239 -250 -535 -374 -855 -358 -146 8 -222 25 -336 74 -240
104 -443 305 -556 549 -39 83 -82 223 -94 302 l-7 42 1426 0 1426 0 0 370 0
370 -1425 0 c-825 0 -1425 4 -1425 9 0 32 35 185 57 244 60 167 132 284 253
411 190 199 418 302 694 313 342 15 629 -120 894 -419 l42 -48 138 104 c150
114 401 294 417 299 27 9 -175 224 -325 344 -440 354 -987 494 -1510 387 -103
-22 -264 -76 -379 -130 l-96 -45 -194 -245 c-213 -270 -316 -413 -396 -549
-104 -177 -189 -396 -224 -575 l-18 -95 -146 -3 -147 -3 6 63 c52 573 344
1111 749 1380 51 34 93 64 91 66 -6 6 -200 -50 -275 -79 -201 -80 -437 -249
-604 -434 -239 -265 -385 -565 -457 -937 l-11 -58 -139 0 -139 0 6 38 c26 179
109 433 202 622 127 256 291 483 505 695 320 319 715 544 1149 655 212 54 333
71 547 77 810 23 1560 -352 2065 -1033 l60 -81 165 112 c91 61 230 153 310
204 80 51 145 96 145 101 0 23 -208 273 -344 413 -216 221 -401 374 -621 514
-421 267 -846 420 -1331 477 -125 15 -437 26 -539 20z m-2036 -3606 c30 -236
155 -558 280 -724 l53 -71 17 -154 c9 -85 27 -208 41 -274 13 -65 23 -121 21
-122 -8 -8 -163 168 -240 271 -192 258 -325 525 -396 797 -26 99 -60 279 -60
317 0 9 34 12 139 12 l138 0 7 -52z"/>
<path d="M7715 6192 c-69 -33 -105 -87 -105 -158 0 -107 106 -192 207 -165 81
22 133 86 133 163 0 123 -128 210 -235 160z"/>
<path d="M7724 5407 c-78 -30 -147 -106 -174 -191 -37 -117 31 -266 148 -323
137 -67 310 -5 379 135 66 135 8 298 -129 366 -42 21 -66 26 -122 25 -39 0
-85 -6 -102 -12z"/>
<path d="M7715 4426 c-128 -56 -138 -243 -15 -306 111 -57 250 22 250 143 0
124 -125 211 -235 163z"/>
</g>
</svg>
