<?xml version="1.0" standalone="no"?>
<!DOCTYPE svg PUBLIC "-//W3C//DTD SVG 20010904//EN"
 "http://www.w3.org/TR/2001/REC-SVG-20010904/DTD/svg10.dtd">
<svg version="1.0" xmlns="http://www.w3.org/2000/svg"
 width="816.000000pt" height="739.000000pt" viewBox="0 0 816.000000 739.000000"
 preserveAspectRatio="xMidYMid meet">

<g transform="translate(0.000000,739.000000) scale(0.100000,-0.100000)"
fill="#000000" stroke="none">
<path d="M3910 7193 c-269 -26 -400 -48 -615 -103 -652 -167 -1249 -528 -1697
-1027 -502 -558 -800 -1219 -883 -1958 -20 -175 -20 -564 0 -748 64 -580 282
-1155 618 -1627 169 -237 450 -537 656 -699 347 -275 741 -482 1161 -612 148
-46 399 -102 560 -124 157 -22 588 -31 760 -16 1385 123 2574 1075 2998 2402
109 342 162 684 162 1049 0 1069 -473 2052 -1310 2720 -529 422 -1163 674
-1865 740 -101 9 -462 12 -545 3z m665 -228 c401 -56 701 -148 1046 -321 891
-445 1535 -1286 1733 -2261 50 -244 60 -349 60 -653 0 -219 -4 -313 -17 -408
-54 -379 -149 -694 -307 -1017 -492 -1005 -1461 -1687 -2570 -1810 -178 -20
-536 -20 -705 0 -527 61 -948 209 -1405 493 -353 220 -689 545 -932 902 -311
457 -492 944 -553 1490 -17 157 -20 519 -5 671 150 1513 1337 2732 2835 2913
72 9 146 18 165 20 79 9 550 -4 655 -19z"/>
<path d="M4390 6324 c-308 -16 -1139 -34 -1547 -34 l-310 0 -276 -147 c-152
-81 -274 -150 -271 -153 3 -3 106 -7 229 -10 123 -3 226 -8 229 -11 4 -3 9
-393 13 -866 l6 -860 -161 -84 c-89 -46 -162 -87 -162 -91 0 -5 28 -8 63 -8
34 0 106 -3 160 -7 l98 -6 -4 -851 c-4 -718 -7 -863 -20 -926 -43 -210 -84
-294 -226 -464 -15 -18 -15 -19 2 -13 34 12 302 36 547 48 135 6 246 12 246
13 1 0 -4 31 -12 68 -8 37 -17 98 -22 135 l-7 68 -115 5 -115 5 45 27 c54 31
139 119 162 168 10 22 20 86 28 175 6 77 15 158 20 180 6 22 15 339 21 705 6
366 12 666 13 666 5 5 655 38 786 40 l165 2 115 55 c109 51 398 167 417 167 5
0 20 11 33 25 22 24 22 26 6 44 -26 29 -79 30 -431 10 -176 -10 -494 -21 -706
-25 l-386 -7 -6 603 c-4 332 -7 694 -7 805 l0 202 178 6 c97 4 378 14 623 24
442 17 446 17 480 -3 40 -23 49 -62 24 -100 -8 -13 -13 -24 -10 -24 4 0 95 60
203 133 108 73 241 157 295 187 130 72 149 107 70 129 -46 13 -162 12 -483 -5z"/>
<path d="M5158 4301 c-415 -73 -976 -281 -1248 -462 -110 -74 -288 -245 -377
-364 -205 -274 -334 -601 -374 -955 -17 -148 -6 -436 20 -561 75 -348 264
-649 541 -858 284 -215 618 -331 1041 -362 123 -9 160 -8 240 5 294 51 643
209 921 419 37 28 66 52 64 54 -2 2 -33 -7 -69 -21 -198 -74 -716 -148 -932
-131 -271 20 -496 86 -709 208 -353 201 -571 509 -658 926 -29 142 -36 481
-14 658 67 528 314 889 750 1099 212 102 429 141 731 131 328 -11 563 -70 645
-163 25 -29 31 -44 28 -70 -2 -19 -2 -34 2 -34 13 0 146 73 201 111 74 50 196
164 204 190 15 47 -60 104 -185 139 -144 40 -248 52 -485 56 -192 3 -248 0
-337 -15z"/>
<path d="M4605 2200 c-142 -50 -298 -70 -551 -70 -123 0 -224 -1 -224 -3 0
-11 52 -151 74 -199 31 -70 29 -69 187 -29 220 56 425 167 589 317 17 17 22
18 -75 -16z"/>
</g>
</svg>
