<svg width="484.32807617187495px" height="122px" xmlns="http://www.w3.org/2000/svg" viewBox="7.835961914062523 14 484.32807617187495 122" style="background: rgba(243, 243, 243, 0);" preserveAspectRatio="xMidYMid"><defs><filter id="editing-metal-beveled"><feGaussianBlur stdDeviation="4" in="SourceAlpha" result="blur"></feGaussianBlur><feSpecularLighting surfaceScale="5" specularConstant="0.8" specularExponent="7.5" lighting-color="#b8babd" in="blur" result="specular"><fePointLight x="-250" y="-50" z="300"></fePointLight></feSpecularLighting><feComposite operator="in" in="specular" in2="SourceAlpha" result="comp"></feComposite><feComposite in="SourceGraphic" in2="comp" operator="arithmetic" k1="0" k2="1" k3="1" k4="0"></feComposite></filter></defs><g filter="url(#editing-metal-beveled)"><g transform="translate(79.40223908424377, 104.76000022888184)"><path d="M28.42-9.86L28.42-9.86L28.42-9.86Q29.63-8.32 29.63-5.82L29.63-5.82L29.63-5.82Q29.63-2.37 27.07-0.54L27.07-0.54L27.07-0.54Q24.51 1.28 20.48 1.28L20.48 1.28L20.48 1.28Q18.18 1.28 14.66 0.77L14.66 0.77L14.66 0.77Q7.74-0.32 5.63-0.32L5.63-0.32L5.63-0.32Q3.52-0.32 2.69-0.22L2.69-0.22L2.69-0.22Q1.86-0.13 0.51 0L0.51 0L8.38-42.24L35.97-42.24L35.97-42.24Q35.97-38.34 34.08-36.29L34.08-36.29L34.08-36.29Q32.19-34.24 28.48-34.24L28.48-34.24L28.48-34.24Q24.77-34.24 20.99-35.97L20.99-35.97L19.01-24.77L30.40-24.77L30.40-24.77Q30.40-21.38 28.74-19.49L28.74-19.49L28.74-19.49Q27.07-17.60 24.29-17.60L24.29-17.60L24.29-17.60Q21.50-17.60 19.78-18.24L19.78-18.24L19.78-18.24Q18.05-18.88 17.86-19.07L17.86-19.07L15.55-6.98L15.55-6.98Q17.09-6.78 19.97-6.78L19.97-6.78L19.97-6.78Q24.90-6.78 28.42-9.86ZM56.06-2.69L56.06-2.69L56.06-2.69Q52.99 1.28 45.38 1.28L45.38 1.28L45.38 1.28Q41.41 1.28 38.53-1.12L38.53-1.12L38.53-1.12Q35.65-3.52 35.65-6.98L35.65-6.98L35.65-6.98Q35.65-8.90 35.84-9.86L35.84-9.86L40.13-32.64L53.12-33.92L48.45-9.22L48.45-9.22Q48.19-7.81 48.19-6.98L48.19-6.98L48.19-6.98Q48.19-3.26 50.43-3.26L50.43-3.26L50.43-3.26Q52.93-3.26 54.72-6.66L54.72-6.66L54.72-6.66Q55.30-7.74 55.55-9.15L55.55-9.15L60.10-32.64L72.70-33.92L67.97-8.96L67.97-8.96Q67.78-8 67.78-6.98L67.78-6.98L67.78-6.98Q67.78-5.95 68.35-4.83L68.35-4.83L68.35-4.83Q68.93-3.71 70.78-3.46L70.78-3.46L70.78-3.46Q70.40-1.92 69.06-0.90L69.06-0.90L69.06-0.90Q66.24 1.28 63.20 1.28L63.20 1.28L63.20 1.28Q60.16 1.28 58.37 0.19L58.37 0.19L58.37 0.19Q56.58-0.90 56.06-2.69ZM96.19-17.98L96.19-17.98L96.19-17.98Q98.50-22.08 98.50-26.24L98.50-26.24L98.50-26.24Q98.50-28.99 96.51-28.99L96.51-28.99L96.51-28.99Q94.98-28.99 93.38-26.37L93.38-26.37L93.38-26.37Q91.71-23.74 91.20-20.35L91.20-20.35L87.87 0L74.62 1.28L81.15-32.64L91.71-33.92L90.56-27.46L90.56-27.46Q93.70-33.92 100.74-33.92L100.74-33.92L100.74-33.92Q104.45-33.92 106.46-32L106.46-32L106.46-32Q108.48-30.08 108.48-26.14L108.48-26.14L108.48-26.14Q108.48-22.21 105.89-19.71L105.89-19.71L105.89-19.71Q103.30-17.22 98.88-17.22L98.88-17.22L98.88-17.22Q96.96-17.22 96.19-17.98ZM123.46 1.28L123.46 1.28L123.46 1.28Q109.38 1.28 109.38-11.97L109.38-11.97L109.38-11.97Q109.38-21.38 114.56-27.46L114.56-27.46L114.56-27.46Q120.06-33.92 129.60-33.92L129.60-33.92L129.60-33.92Q136.51-33.92 140.03-30.72L140.03-30.72L140.03-30.72Q143.55-27.52 143.55-20.80L143.55-20.80L143.55-20.80Q143.55-10.56 138.05-4.61L138.05-4.61L138.05-4.61Q132.67 1.28 123.46 1.28ZM125.12-26.56L125.12-26.56L125.12-26.56Q124.35-24.83 123.74-22.24L123.74-22.24L123.74-22.24Q123.14-19.65 122.37-15.55L122.37-15.55L122.37-15.55Q121.60-11.46 121.60-6.40L121.60-6.40L121.60-6.40Q121.60-4.74 122.14-3.65L122.14-3.65L122.14-3.65Q122.69-2.56 124.16-2.56L124.16-2.56L124.16-2.56Q125.63-2.56 126.56-3.26L126.56-3.26L126.56-3.26Q127.49-3.97 128.19-5.63L128.19-5.63L128.19-5.63Q129.47-8.58 130.50-14.05L130.50-14.05L130.50-14.05Q131.52-19.52 131.62-21.89L131.62-21.89L131.62-21.89Q131.71-24.26 131.71-26.02L131.71-26.02L131.71-26.02Q131.71-27.78 131.20-28.93L131.20-28.93L131.20-28.93Q130.69-30.08 129.25-30.08L129.25-30.08L129.25-30.08Q127.81-30.08 126.85-29.18L126.85-29.18L126.85-29.18Q125.89-28.29 125.12-26.56ZM180.74-13.25L180.74-13.25L180.74-13.25Q182.40-12.03 182.40-9.44L182.40-9.44L182.40-9.44Q182.40-6.85 181.28-5.02L181.28-5.02L181.28-5.02Q180.16-3.20 177.98-1.79L177.98-1.79L177.98-1.79Q173.31 1.22 165.15 1.22L165.15 1.22L165.15 1.22Q156.99 1.22 152.54-3.04L152.54-3.04L152.54-3.04Q148.10-7.30 148.10-14.85L148.10-14.85L148.10-14.85Q148.10-25.54 153.66-33.66L153.66-33.66L153.66-33.66Q157.89-39.68 165.44-42.24L165.44-42.24L165.44-42.24Q169.34-43.52 173.18-43.52L173.18-43.52L173.18-43.52Q177.02-43.52 179.39-43.01L179.39-43.01L179.39-43.01Q181.76-42.50 183.55-41.47L183.55-41.47L183.55-41.47Q187.46-39.23 187.46-35.65L187.46-35.65L187.46-35.65Q187.46-32.38 184.38-29.95L184.38-29.95L184.38-29.95Q181.57-27.78 179.26-27.78L179.26-27.78L179.26-27.78Q176.96-27.78 176-28.10L176-28.10L176-28.10Q176.26-30.40 176.26-31.90L176.26-31.90L176.26-31.90Q176.26-33.41 176.19-34.50L176.19-34.50L176.19-34.50Q176.13-35.58 175.81-36.61L175.81-36.61L175.81-36.61Q175.17-38.98 173.22-38.98L173.22-38.98L173.22-38.98Q171.26-38.98 169.31-37.15L169.31-37.15L169.31-37.15Q167.36-35.33 165.70-32.26L165.70-32.26L165.70-32.26Q161.92-25.28 161.92-17.02L161.92-17.02L161.92-17.02Q161.92-13.06 164.16-10.78L164.16-10.78L164.16-10.78Q166.40-8.51 171.20-8.51L171.20-8.51L171.20-8.51Q174.78-8.51 178.18-10.88L178.18-10.88L178.18-10.88Q179.65-11.90 180.74-13.25ZM203.07-3.52L203.07-3.52L203.07-3.52Q201.09 1.28 194.75 1.28L194.75 1.28L194.75 1.28Q191.49 1.28 189.44-0.96L189.44-0.96L189.44-0.96Q187.71-2.94 187.71-4.93L187.71-4.93L187.71-4.93Q187.71-10.11 190.08-20.22L190.08-20.22L192.45-32.64L205.44-33.92L201.54-13.70L201.54-13.70Q200.45-8.96 200.45-7.30L200.45-7.30L200.45-7.30Q200.45-3.65 203.07-3.52ZM193.60-41.54L193.60-41.54L193.60-41.54Q193.60-44.03 195.68-45.38L195.68-45.38L195.68-45.38Q197.76-46.72 200.77-46.72L200.77-46.72L200.77-46.72Q203.78-46.72 205.60-45.38L205.60-45.38L205.60-45.38Q207.42-44.03 207.42-41.54L207.42-41.54L207.42-41.54Q207.42-39.04 205.41-37.76L205.41-37.76L205.41-37.76Q203.39-36.48 200.38-36.48L200.38-36.48L200.38-36.48Q197.38-36.48 195.49-37.76L195.49-37.76L195.49-37.76Q193.60-39.04 193.60-41.54ZM238.34-4.38L238.34-4.38L238.34-4.38Q235.65-1.66 231.97-0.19L231.97-0.19L231.97-0.19Q228.29 1.28 224.64 1.28L224.64 1.28L224.64 1.28Q220.99 1.28 219.71 0.64L219.71 0.64L217.73 11.52L204.74 12.80L213.57-32.64L224.00-33.73L223.17-29.31L223.17-29.31Q225.86-33.86 231.42-33.86L231.42-33.86L231.42-33.86Q237.70-33.86 241.02-29.82L241.02-29.82L241.02-29.82Q243.97-26.18 243.97-20.61L243.97-20.61L243.97-20.61Q243.97-15.04 242.50-11.07L242.50-11.07L242.50-11.07Q241.02-7.10 238.34-4.38ZM223.87-22.34L220.48-3.58L220.48-3.58Q221.82-2.43 223.49-2.43L223.49-2.43L223.49-2.43Q225.15-2.43 226.11-3.07L226.11-3.07L226.11-3.07Q227.07-3.71 227.78-4.99L227.78-4.99L227.78-4.99Q229.70-8.45 231.23-18.94L231.23-18.94L231.23-18.94Q231.68-22.02 231.68-25.02L231.68-25.02L231.68-25.02Q231.68-28.03 231.01-28.99L231.01-28.99L231.01-28.99Q230.34-29.95 229.06-29.95L229.06-29.95L229.06-29.95Q225.15-29.95 223.87-22.34L223.87-22.34ZM250.59-1.92L250.59-1.92L250.59-1.92Q249.09-3.58 248.42-6.21L248.42-6.21L248.42-6.21Q247.74-8.83 247.74-13.12L247.74-13.12L247.74-13.12Q247.74-17.41 249.22-21.31L249.22-21.31L249.22-21.31Q250.69-25.22 253.38-28.03L253.38-28.03L253.38-28.03Q258.88-33.92 267.97-33.92L267.97-33.92L267.97-33.92Q271.23-33.92 273.60-32.83L273.60-32.83L284.54-33.92L279.81-8.96L279.81-8.96Q279.62-8.19 279.62-6.78L279.62-6.78L279.62-6.78Q279.62-5.38 280.48-4.48L280.48-4.48L280.48-4.48Q281.34-3.58 282.62-3.46L282.62-3.46L282.62-3.46Q281.98-1.28 279.65 0L279.65 0L279.65 0Q277.31 1.28 274.69 1.28L274.69 1.28L274.69 1.28Q272.06 1.28 270.30 0.29L270.30 0.29L270.30 0.29Q268.54-0.70 268.03-2.37L268.03-2.37L268.03-2.37Q267.01-0.77 264.83 0.26L264.83 0.26L264.83 0.26Q262.66 1.28 259.74 1.28L259.74 1.28L259.74 1.28Q256.83 1.28 254.46 0.51L254.46 0.51L254.46 0.51Q252.10-0.26 250.59-1.92ZM264.10-27.90L264.10-27.90L264.10-27.90Q263.36-26.75 262.72-24.80L262.72-24.80L262.72-24.80Q262.08-22.85 261.02-17.63L261.02-17.63L261.02-17.63Q259.97-12.42 259.97-8.70L259.97-8.70L259.97-8.70Q259.97-4.99 260.54-3.90L260.54-3.90L260.54-3.90Q261.12-2.82 262.14-2.82L262.14-2.82L262.14-2.82Q264.19-2.82 265.70-4.77L265.70-4.77L265.70-4.77Q267.20-6.72 267.78-10.18L267.78-10.18L271.17-28.93L271.17-28.93Q269.82-30.08 268.26-30.08L268.26-30.08L268.26-30.08Q266.69-30.08 265.76-29.57L265.76-29.57L265.76-29.57Q264.83-29.06 264.10-27.90ZM308.03-17.98L308.03-17.98L308.03-17.98Q310.34-22.08 310.34-26.24L310.34-26.24L310.34-26.24Q310.34-28.99 308.35-28.99L308.35-28.99L308.35-28.99Q306.82-28.99 305.22-26.37L305.22-26.37L305.22-26.37Q303.55-23.74 303.04-20.35L303.04-20.35L299.71 0L286.46 1.28L292.99-32.64L303.55-33.92L302.40-27.46L302.40-27.46Q305.54-33.92 312.58-33.92L312.58-33.92L312.58-33.92Q316.29-33.92 318.30-32L318.30-32L318.30-32Q320.32-30.08 320.32-26.14L320.32-26.14L320.32-26.14Q320.32-22.21 317.73-19.71L317.73-19.71L317.73-19.71Q315.14-17.22 310.72-17.22L310.72-17.22L310.72-17.22Q308.80-17.22 308.03-17.98ZM336.70-3.52L336.70-3.52L336.70-3.52Q334.72 1.28 328.38 1.28L328.38 1.28L328.38 1.28Q325.12 1.28 323.07-0.96L323.07-0.96L323.07-0.96Q321.34-2.94 321.34-4.93L321.34-4.93L321.34-4.93Q321.34-10.11 323.71-20.22L323.71-20.22L326.08-32.64L339.07-33.92L335.17-13.70L335.17-13.70Q334.08-8.96 334.08-7.30L334.08-7.30L334.08-7.30Q334.08-3.65 336.70-3.52ZM327.23-41.54L327.23-41.54L327.23-41.54Q327.23-44.03 329.31-45.38L329.31-45.38L329.31-45.38Q331.39-46.72 334.40-46.72L334.40-46.72L334.40-46.72Q337.41-46.72 339.23-45.38L339.23-45.38L339.23-45.38Q341.06-44.03 341.06-41.54L341.06-41.54L341.06-41.54Q341.06-39.04 339.04-37.76L339.04-37.76L339.04-37.76Q337.02-36.48 334.02-36.48L334.02-36.48L334.02-36.48Q331.01-36.48 329.12-37.76L329.12-37.76L329.12-37.76Q327.23-39.04 327.23-41.54Z" fill="#d8dddf"></path></g></g><style>text {
  font-size: 64px;
  font-family: Arial Black;
  dominant-baseline: central;
  text-anchor: middle;
}</style></svg>